:SAMPLES-PER-SECOND 30
:FULLY-SPECIFIED
:DEGREES
146
root  6.11776 27.7895 0.333994 -28.6053 -69.4479 24.1633
RightUpLeg  -51.6586 10.2055 -6.2394
RightLeg  98.2008 0.627907 -1.72647
RightFoot  -25.7955 0.625602 6.30189
RightToes  -1.28057e-009 0 -3.6325e-017
Spine  46.9369 -1.57104 -0.841039
Spine1  -8.22387 -0.788264 -8.15011
HEad  -32.2001 -16.2455 2.30496
LeftShoulder1  1.12752 -6.55917 -3.1652
LeftArm  -32.984 -56.0984 -50.9624
LeftForeArm  89.8265 -79.6736 -54.8014
LeftHand  1.42728 8.07625 55.1102
RightShoulder  0.199811 -1.3787 1.03153
RightArm  -33.0041 39.5313 41.4163
RightForeArm  83.3841 79.6939 58.0844
RightHand  -3.14317 1.07944 -52.798
LeftUpLeg  -48.4821 5.8533 -14.296
LeftLeg  92.3479 -1.4066 14.581
LeftFoot  -29.413 -1.60257 -11.1598
LeftToes  -7.27922e-012 9.28972e-011 -9.04533e-012
147
root  5.58117 28.6424 -0.39256 -2.86023 -65.6666 -1.10756
RightUpLeg  -49.2108 2.11543 5.03014
RightLeg  92.3465 0.490226 -2.72024
RightFoot  -24.9646 0.138699 2.56262
RightToes  -1.28057e-009 0 -3.6325e-017
Spine  44.9253 1.12591 -4.39437
Spine1  -8.64385 -1.65239 9.53348
HEad  -32.0635 -12.2973 0.988671
LeftShoulder1  0.805823 -7.16959 1.05357
LeftArm  -12.2048 -60.5553 -64.7117
LeftForeArm  137.785 -81.9953 -93.6094
LeftHand  1.24275 7.76283 54.3331
RightShoulder  0.346067 -0.765901 4.83604
RightArm  -44.2539 30.9514 32.1823
RightForeArm  66.7161 77.021 45.411
RightHand  -3.38514 1.33951 -54.3916
LeftUpLeg  -49.7136 -3.37031 -3.39111
LeftLeg  91.1043 -1.17593 16.1642
LeftFoot  -27.5569 -1.4964 -11.644
LeftToes  -7.27922e-012 9.28972e-011 -9.04533e-012
148
root  4.92924 29.5918 -1.03612 16.0974 -57.6107 -19.4376
RightUpLeg  -47.7805 -7.42343 17.292
RightLeg  84.8962 0.181185 -2.59891
RightFoot  -24.1341 -0.262501 -0.868282
RightToes  -1.28057e-009 0 -3.6325e-017
Spine  42.5285 2.3716 -7.42135
Spine1  -8.31313 -3.75651 27.9436
HEad  -31.3966 -7.30431 -0.763165
LeftShoulder1  0.39619 -6.66067 5.20245
LeftArm  14.0343 -61.1649 -83.2277
LeftForeArm  114.54 -80.9382 -64.659
LeftHand  1.09081 7.43324 55.0716
RightShoulder  0.506854 -0.249862 8.12871
RightArm  -48.4963 27.486 30.8552
RightForeArm  44.0885 66.5766 21.9737
RightHand  -3.80495 1.91807 -56.0001
LeftUpLeg  -52.5035 -13.2569 10.004
LeftLeg  89.268 -0.644477 16.4631
LeftFoot  -25.955 -1.43906 -12.3908
LeftToes  -7.27922e-012 9.28972e-011 -9.04533e-012
149
root  4.32609 30.4612 -1.47891 25.9695 -48.9679 -29.3295
RightUpLeg  -46.6253 -16.0433 27.4616
RightLeg  77.6507 0.67277 1.91544
RightFoot  -23.4871 -0.143784 0.165264
RightToes  -1.28057e-009 0 -3.6325e-017
Spine  41.1525 2.5762 -9.24528
Spine1  -7.54566 -6.29205 42.4912
HEad  -31.0859 -2.6587 -0.256672
LeftShoulder1  0.178443 -6.04117 7.49063
LeftArm  40.5863 -58.2602 -101.962
LeftForeArm  75.2418 -70.2534 -23.5907
LeftHand  0.977203 7.14352 56.7213
RightShoulder  0.726883 0.408239 11.4768
RightArm  -48.3134 26.0226 33.7737
RightForeArm  34.5704 52.193 11.518
RightHand  -4.27893 2.66871 -56.9422
LeftUpLeg  -55.4688 -20.8835 22.3266
LeftLeg  87.0173 0.0732922 18.2405
LeftFoot  -24.533 -1.1657 -11.293
LeftToes  -7.27922e-012 9.28972e-011 -9.04533e-012
150
root  3.97281 31.1359 -1.65903 29.7812 -44.804 -33.2846
RightUpLeg  -44.9729 -20.8619 31.785
RightLeg  72.6894 2.70114 8.87214
RightFoot  -23.1581 0.316084 4.55339
RightToes  -1.28057e-009 0 -3.6325e-017
Spine  39.9347 2.79468 -9.8697
Spine1  -5.34004 -7.94741 48.0031
HEad  -32.6414 -0.282985 3.56706
LeftShoulder1  0.231389 -6.13861 6.89073
LeftArm  59.5009 -52.4929 -111.237
LeftForeArm  60.4689 -51.4031 -9.20544
LeftHand  1.18752 7.48285 57.8305
RightShoulder  0.994349 1.15035 14.5872
RightArm  -44.5071 22.8242 37.9887
RightForeArm  27.8041 39.4864 7.3792
RightHand  -4.36377 2.86511 -56.7109
LeftUpLeg  -56.1192 -24.5304 28.1225
LeftLeg  84.6236 1.1511 22.5259
LeftFoot  -23.2269 -0.764833 -8.68519
LeftToes  -7.27922e-012 9.28972e-011 -9.04533e-012
151
root  3.91968 31.6118 -1.53944 30.7809 -46.8117 -33.3873
RightUpLeg  -43.2499 -20.593 30.1999
RightLeg  70.3242 4.29277 12.4741
RightFoot  -23.3631 0.505785 6.31589
RightToes  -1.28057e-009 0 -3.6325e-017
Spine  38.1243 3.17112 -9.22165
Spine1  -2.95892 -7.55238 43.9894
HEad  -35.465 -1.06154 7.52988
LeftShoulder1  0.695806 -7.33013 2.42907
LeftArm  69.9874 -46.437 -109.463
LeftForeArm  49.9945 -33.9671 -4.52942
LeftHand  1.60701 8.20069 58.6014
RightShoulder  1.22129 1.72025 16.7904
RightArm  -34.9589 18.7698 42.8366
RightForeArm  21.5341 30.0128 5.30105
RightHand  -4.07928 2.48778 -55.7303
LeftUpLeg  -54.0709 -24.4179 26.5785
LeftLeg  82.2864 2.50981 25.8315
LeftFoot  -22.7554 -0.669264 -8.05186
LeftToes  -7.27922e-012 9.28972e-011 -9.04533e-012
152
root  4.051 32.0166 -1.1093 29.5923 -52.2182 -30.8936
RightUpLeg  -41.6223 -17.147 25.5942
RightLeg  69.0688 3.92623 10.5407
RightFoot  -23.9045 0.203971 3.33527
RightToes  -1.28057e-009 0 -3.6325e-017
Spine  37.1599 2.61227 -6.47106
Spine1  -2.56466 -5.59456 34.4459
HEad  -37.4578 -4.1824 7.8402
LeftShoulder1  1.80339 -9.09099 -6.63479
LeftArm  65.5839 -39.6947 -95.2989
LeftForeArm  37.5576 -23.5433 -3.60724
LeftHand  1.7509 8.50028 58.0012
RightShoulder  1.39656 2.28008 17.6177
RightArm  -19.9621 16.8595 49.1076
RightForeArm  18.9816 24.1337 4.26675
RightHand  -3.81185 2.18285 -54.4166
LeftUpLeg  -50.3449 -22.2487 21.1249
LeftLeg  79.6404 3.74858 25.5154
LeftFoot  -23.6104 -0.958963 -10.1877
LeftToes  -7.27922e-012 9.28972e-011 -9.04533e-012
153
root  4.22838 32.4754 -0.427839 24.789 -57.6933 -25.7301
RightUpLeg  -39.3042 -12.5447 19.2882
RightLeg  68.1573 2.48462 6.10821
RightFoot  -24.1371 -0.114187 0.420895
RightToes  -1.28057e-009 0 -3.6325e-017
Spine  37.4432 0.128488 -1.45492
Spine1  -3.58421 -4.18482 22.6923
HEad  -37.9743 -7.73302 4.96181
LeftShoulder1  3.00534 -9.47729 -16.5459
LeftArm  41.5983 -32.5299 -74.3089
LeftForeArm  32.9769 -20.4201 -5.14907
LeftHand  1.42677 8.05582 55.2683
RightShoulder  1.51415 2.88356 17.1383
RightArm  -3.60976 18.9147 57.4103
RightForeArm  20.8006 22.0254 4.06714
RightHand  -3.71127 2.16519 -53.2825
LeftUpLeg  -45.2114 -19.2325 13.6455
LeftLeg  76.2198 4.93731 23.4887
LeftFoot  -25.0633 -1.17924 -11.0558
LeftToes  -7.27922e-012 9.28972e-011 -9.04533e-012
154
root  4.3767 33.1033 0.370997 14.0128 -62.9002 -15.381
RightUpLeg  -36.2698 -5.40025 10.3973
RightLeg  67.654 1.28247 2.72775
RightFoot  -23.3685 0.0455081 1.98015
RightToes  -1.28057e-009 0 -3.6325e-017
Spine  36.8735 -3.3855 3.62223
Spine1  -2.89137 -3.77828 8.61468
HEad  -37.816 -10.7718 2.61693
LeftShoulder1  3.25334 -8.41547 -20.8815
LeftArm  18.4854 -26.3891 -57.5598
LeftForeArm  29.2459 -22.2154 -3.99514
LeftHand  0.721278 6.79094 53.0107
RightShoulder  1.46067 3.18217 15.0888
RightArm  11.1683 23.9303 67.9645
RightForeArm  25.1857 24.5125 3.93717
RightHand  -3.50603 1.79869 -52.9624
LeftUpLeg  -38.5645 -13.4632 3.59211
LeftLeg  71.0783 6.80759 22.0176
LeftFoot  -25.9866 -0.840375 -7.75031
LeftToes  -7.27922e-012 9.28972e-011 -9.04533e-012
155
root  4.43074 33.8787 1.15636 -6.86206 -68.4635 5.50076
RightUpLeg  -34.1022 6.33083 -0.932442
RightLeg  67.4706 0.458551 0.511866
RightFoot  -21.6528 0.39485 6.02051
RightToes  -1.28057e-009 0 -3.6325e-017
Spine  34.2492 -5.44015 6.48636
Spine1  0.0815208 -1.98926 -8.21994
HEad  -36.503 -13.9147 2.66608
LeftShoulder1  2.72859 -7.25866 -18.8084
LeftArm  -3.91607 -24.2956 -48.1825
LeftForeArm  29.6983 -24.846 -3.66956
LeftHand  0.925102 7.14851 53.8947
RightShoulder  1.15236 2.78692 11.1293
RightArm  19.1864 29.4707 78.5752
RightForeArm  35.4863 31.7425 4.97153
RightHand  -3.34083 1.48404 -52.8078
LeftUpLeg  -31.7498 -1.90364 -8.13924
LeftLeg  63.4349 8.73688 19.0884
LeftFoot  -25.8885 -0.206825 -2.80308
LeftToes  -7.27922e-012 9.28972e-011 -9.04533e-012
156
root  4.3463 34.6948 1.83782 -37.6316 -71.6233 37.2579
RightUpLeg  -34.1486 19.8704 -11.972
RightLeg  66.7997 -0.657696 -2.33975
RightFoot  -19.2898 0.446701 8.25612
RightToes  -1.28057e-009 0 -3.6325e-017
Spine  31.5176 -5.18259 7.43548
Spine1  1.63178 1.93478 -24.6242
HEad  -33.2642 -16.9951 3.32515
LeftShoulder1  1.98641 -5.93447 -14.098
LeftArm  -25.3668 -25.9565 -43.5973
LeftForeArm  34.3641 -29.8001 -4.57532
LeftHand  1.69134 8.54083 55.8065
RightShoulder  0.697583 1.65002 5.73965
RightArm  21.8361 34.2486 85.8518
RightForeArm  46.9458 42.9054 7.31332
RightHand  -3.28297 1.44117 -52.2959
LeftUpLeg  -27.1354 13.7077 -18.206
LeftLeg  54.5778 7.80201 12.2346
LeftFoot  -23.9421 0.107724 -0.334736
LeftToes  -7.27922e-012 9.28972e-011 -9.04533e-012
157
root  4.22499 35.564 2.29375 -59.8854 -70.8285 61.0555
RightUpLeg  -35.1887 28.5884 -18.998
RightLeg  64.5418 -2.48841 -6.2545
RightFoot  -16.0475 0.213136 7.72271
RightToes  -1.28057e-009 0 -3.6325e-017
Spine  30.1696 -4.55474 7.89023
Spine1  -0.305637 4.37316 -35.3287
HEad  -29.5977 -18.2158 2.72928
LeftShoulder1  1.18035 -3.4532 -9.54629
LeftArm  -40.1097 -29.4067 -42.544
LeftForeArm  40.0288 -40.6812 -7.07034
LeftHand  1.59719 8.34764 55.9251
RightShoulder  0.327505 0.204949 0.433998
RightArm  19.8659 38.2912 87.1944
RightForeArm  55.9605 57.2423 12.8654
RightHand  -3.00388 0.924588 -51.8513
LeftUpLeg  -25.3124 25.1733 -23.84
LeftLeg  47.6013 3.82362 4.90473
LeftFoot  -19.3077 0.0256418 -1.49889
LeftToes  -7.27922e-012 9.28972e-011 -9.04533e-012
158
root  4.19737 36.377 2.3773 -61.1357 -70.3334 63.535
RightUpLeg  -34.7691 29.127 -19.6397
RightLeg  61.0839 -4.48128 -9.23544
RightFoot  -12.6762 -0.0162264 5.9725
RightToes  -1.28057e-009 0 -3.6325e-017
Spine  29.8293 -4.81673 7.21521
Spine1  -3.4732 3.15789 -36.8519
HEad  -27.7539 -16.566 1.55539
LeftShoulder1  0.529476 -0.355403 -6.02678
LeftArm  -46.2526 -33.6105 -43.7702
LeftForeArm  47.7313 -56.6082 -13.2055
LeftHand  1.30885 7.86068 54.9209
RightShoulder  0.141969 -1.15654 -2.63643
RightArm  11.5732 41.1829 81.2956
RightForeArm  69.0413 72.4611 28.315
RightHand  -2.56699 0.0794021 -51.2588
LeftUpLeg  -24.7712 25.6307 -24.151
LeftLeg  43.8882 1.71127 2.17699
LeftFoot  -14.1917 -0.0312168 -4.57961
LeftToes  -7.27922e-012 9.28972e-011 -9.04533e-012
159
root  4.21695 36.9761 2.07654 -49.7302 -71.7309 51.8587
RightUpLeg  -31.866 24.2013 -14.5738
RightLeg  56.9199 -5.28718 -9.12604
RightFoot  -10.4807 -0.101724 3.856
RightToes  -1.28057e-009 0 -3.6325e-017
Spine  30.7629 -4.48484 3.81169
Spine1  -6.19342 0.599906 -29.0023
HEad  -27.2863 -13.3992 1.13031
LeftShoulder1  0.311121 0.707853 -3.25078
LeftArm  -46.192 -38.6681 -45.3983
LeftForeArm  67.7206 -73.3263 -31.0452
LeftHand  1.57159 8.45145 53.7127
RightShoulder  0.0934731 -2.08873 -2.04496
RightArm  -4.35798 40.6976 68.2936
RightForeArm  112.463 81.3973 77.3186
RightHand  -2.25097 -0.456201 -50.0568
LeftUpLeg  -23.4729 17.8222 -19.7436
LeftLeg  42.1453 3.92188 4.21642
LeftFoot  -11.8681 0.0333848 -6.94281
LeftToes  -7.27922e-012 9.28972e-011 -9.04533e-012
